<?xml version="1.0" standalone="no"?>
<!DOCTYPE svg PUBLIC "-//W3C//DTD SVG 20010904//EN"
 "http://www.w3.org/TR/2001/REC-SVG-20010904/DTD/svg10.dtd">
<svg version="1.0" xmlns="http://www.w3.org/2000/svg"
 width="338.000000pt" height="86.000000pt" viewBox="0 0 338.000000 86.000000"
 preserveAspectRatio="xMidYMid meet">

<g transform="translate(0.000000,86.000000) scale(0.100000,-0.100000)"
fill="#ffffff" stroke="none">
<path d="M174 744 c-16 -8 -39 -29 -50 -47 -17 -29 -19 -52 -19 -252 0 -194 2
-224 18 -253 25 -45 72 -64 131 -53 95 18 127 59 134 172 5 78 4 79 -19 79
-59 0 -66 -8 -71 -71 -3 -36 -11 -66 -20 -76 -22 -21 -64 -10 -72 19 -10 38
-7 355 4 382 7 20 16 26 40 26 35 0 50 -26 50 -87 0 -32 2 -35 23 -29 12 3 32
6 45 6 20 0 22 5 22 45 0 97 -53 155 -140 155 -25 0 -59 -7 -76 -16z"/>
<path d="M842 740 c-36 -22 -62 -72 -62 -117 1 -51 36 -107 103 -167 77 -68
99 -112 73 -151 -29 -44 -73 -30 -82 26 -6 38 -7 39 -50 39 -44 0 -44 0 -44
-35 0 -49 23 -100 54 -120 20 -13 42 -16 91 -13 57 3 70 8 96 34 38 39 54 100
39 156 -9 30 -32 60 -96 122 -85 84 -96 105 -74 147 12 21 50 25 68 7 7 -7 12
-22 12 -35 0 -21 5 -23 49 -23 l50 0 -6 38 c-3 20 -12 48 -20 60 -32 51 -141
68 -201 32z"/>
<path d="M2702 744 c-57 -29 -62 -50 -62 -272 0 -191 1 -200 23 -233 40 -59
123 -83 190 -55 47 19 67 63 67 145 0 63 -7 70 -67 71 -21 0 -23 -5 -23 -51 0
-61 -13 -89 -43 -89 -44 0 -47 13 -47 210 0 192 4 210 41 210 30 0 49 -29 49
-76 l0 -44 46 0 46 0 -4 65 c-3 57 -8 70 -36 97 -26 27 -40 32 -89 35 -40 3
-68 -1 -91 -13z"/>
<path d="M471 488 c-23 -145 -45 -275 -48 -290 -5 -27 -4 -28 40 -28 48 0 57
11 57 72 0 33 24 48 79 48 l40 0 7 -50 7 -50 44 0 c28 0 46 5 49 14 4 11 -53
366 -82 514 l-6 32 -72 0 -71 0 -44 -262z m148 -90 c1 -26 -2 -28 -40 -28 -39
0 -40 1 -35 28 3 15 10 61 16 102 19 132 22 133 41 25 10 -55 18 -112 18 -127z"/>
<path d="M1090 710 l0 -40 50 0 50 0 0 -226 0 -225 48 3 47 3 3 222 2 222 48
3 c47 3 47 3 50 41 l3 37 -150 0 -151 0 0 -40z"/>
<path d="M1550 490 l0 -260 45 0 45 0 1 173 1 172 32 -170 32 -170 47 -3 c26
-2 47 -2 48 0 0 2 13 75 29 163 l28 160 1 -162 1 -163 50 0 50 0 0 260 0 260
-69 0 -70 0 -10 -52 c-6 -29 -18 -98 -27 -153 -9 -55 -20 -108 -23 -118 -4
-10 -19 49 -35 135 -15 84 -30 161 -32 171 -5 14 -17 17 -75 17 l-69 0 0 -260z"/>
<path d="M2087 728 c-16 -68 -89 -489 -86 -492 2 -2 22 -6 44 -8 l40 -3 9 48
10 48 55 -3 56 -3 8 -47 9 -46 46 -4 c26 -3 48 -4 50 -2 2 1 -18 121 -44 268
l-48 266 -72 0 c-66 0 -72 -2 -77 -22z m94 -215 c11 -60 19 -111 19 -115 0 -5
-18 -8 -40 -8 -25 0 -40 5 -40 13 0 27 34 226 38 222 3 -3 13 -53 23 -112z"/>
<path d="M2310 710 l0 -40 50 0 50 0 0 -229 0 -229 46 -4 c25 -2 47 -1 50 1 2
2 4 107 4 233 l0 228 50 0 50 0 0 40 0 40 -150 0 -150 0 0 -40z"/>
<path d="M2980 455 l0 -295 49 0 50 0 0 121 c0 66 2 123 4 126 3 2 26 1 51 -2
l46 -7 0 -129 c0 -119 1 -129 19 -129 10 0 33 -3 50 -6 l31 -6 0 311 0 311
-50 0 -50 0 0 -131 0 -132 -37 7 c-21 3 -45 6 -53 6 -13 0 -15 19 -12 125 l3
125 -50 0 -51 0 0 -295z"/>
</g>
</svg>
